<svg width="1080" height="800" viewBox="0 0 1080 800" fill="none" xmlns="http://www.w3.org/2000/svg">
<g clip-path="url(#clip0_9_48)">
<g filter="url(#filter0_di_9_48)">
<rect x="101" y="84.9999" width="877" height="588" rx="80" fill="white"/>
</g>
<path d="M207 199.25C215.333 199.25 221.667 200.25 226 202.25C230.333 204.083 234.167 206.167 237.5 208.5C239.5 209.667 241.083 210.583 242.25 211.25C243.583 211.75 244.833 212 246 212C247.667 212 248.833 211.083 249.5 209.25C250.333 207.417 251 204.667 251.5 201H257.25C257.083 203.833 256.833 207.25 256.5 211.25C256.333 215.083 256.167 220.25 256 226.75C256 233.083 256 241.5 256 252H250.25C249.75 244 248 236.333 245 229C242 221.667 237.583 215.667 231.75 211C226.083 206.333 218.583 204 209.25 204C200.417 204 193.083 206.667 187.25 212C181.583 217.333 178.75 224.333 178.75 233C178.75 240.5 180.667 246.833 184.5 252C188.333 257 193.417 261.583 199.75 265.75C206.25 269.75 213.25 274.083 220.75 278.75C229.417 284.083 237.083 289.417 243.75 294.75C250.583 299.917 255.917 305.667 259.75 312C263.75 318.333 265.75 326 265.75 335C265.75 345.667 263.333 354.5 258.5 361.5C253.667 368.5 247.25 373.75 239.25 377.25C231.25 380.75 222.417 382.5 212.75 382.5C203.917 382.5 196.917 381.5 191.75 379.5C186.583 377.5 182.167 375.417 178.5 373.25C174.833 370.917 172 369.75 170 369.75C168.333 369.75 167.083 370.667 166.25 372.5C165.583 374.333 165 377.083 164.5 380.75H158.75C159.083 377.25 159.25 373.167 159.25 368.5C159.417 363.667 159.5 357.417 159.5 349.75C159.667 342.083 159.75 332.417 159.75 320.75H165.5C166.167 330.75 168 340.083 171 348.75C174.167 357.417 178.917 364.417 185.25 369.75C191.75 374.917 200.333 377.5 211 377.5C216.5 377.5 221.667 376.417 226.5 374.25C231.5 371.917 235.583 368.333 238.75 363.5C241.917 358.5 243.5 352.083 243.5 344.25C243.5 337.417 241.833 331.5 238.5 326.5C235.333 321.333 230.833 316.583 225 312.25C219.167 307.75 212.333 303.167 204.5 298.5C196.667 293.667 189.333 288.75 182.5 283.75C175.667 278.75 170.167 273 166 266.5C162 259.833 160 251.833 160 242.5C160 232.667 162.167 224.583 166.5 218.25C171 211.75 176.833 207 184 204C191.167 200.833 198.833 199.25 207 199.25ZM310.51 208.75V250.5H347.51V255.5H310.51V352.25C310.51 360.083 311.926 365.583 314.76 368.75C317.593 371.917 321.51 373.5 326.51 373.5C331.51 373.5 335.843 371.5 339.51 367.5C343.176 363.333 346.343 356.417 349.01 346.75L354.01 348C352.343 357.667 349.01 365.833 344.01 372.5C339.176 379.167 331.676 382.5 321.51 382.5C315.843 382.5 311.176 381.75 307.51 380.25C303.843 378.917 300.593 376.917 297.76 374.25C294.093 370.417 291.51 365.833 290.01 360.5C288.676 355.167 288.01 348.083 288.01 339.25V255.5H264.01V250.5H288.01V212.25C292.176 212.083 296.176 211.75 300.01 211.25C303.843 210.75 307.343 209.917 310.51 208.75ZM457.139 247.5V352C457.139 359.5 458.472 365.083 461.139 368.75C463.972 372.25 468.972 374 476.139 374V379.25C470.972 378.75 465.805 378.5 460.639 378.5C455.805 378.5 451.139 378.75 446.639 379.25C442.305 379.75 438.305 380.667 434.639 382V352.5C430.472 363.333 424.555 371.083 416.889 375.75C409.389 380.25 401.639 382.5 393.639 382.5C387.805 382.5 382.722 381.667 378.389 380C374.055 378.333 370.472 376 367.639 373C364.472 369.667 362.305 365.333 361.139 360C359.972 354.667 359.389 348.083 359.389 340.25V277.5C359.389 270 358.055 264.5 355.389 261C352.722 257.333 347.722 255.5 340.389 255.5V250.25C345.722 250.75 350.889 251 355.889 251C360.722 251 365.305 250.75 369.639 250.25C374.139 249.583 378.222 248.667 381.889 247.5V345.75C381.889 350.917 382.222 355.667 382.889 360C383.555 364.333 385.222 367.833 387.889 370.5C390.555 373.167 394.889 374.5 400.889 374.5C407.389 374.5 413.139 372.5 418.139 368.5C423.305 364.5 427.305 359.083 430.139 352.25C433.139 345.417 434.639 337.75 434.639 329.25V277.5C434.639 270 433.305 264.5 430.639 261C427.972 257.333 422.972 255.5 415.639 255.5V250.25C420.972 250.75 426.139 251 431.139 251C435.972 251 440.555 250.75 444.889 250.25C449.389 249.583 453.472 248.667 457.139 247.5ZM587.652 183V351.75C587.652 359.25 588.986 364.833 591.652 368.5C594.486 372 599.486 373.75 606.652 373.75V379C601.486 378.5 596.319 378.25 591.152 378.25C586.319 378.25 581.652 378.5 577.152 379C572.819 379.5 568.819 380.417 565.152 381.75V213C565.152 205.5 563.819 200 561.152 196.5C558.486 192.833 553.486 191 546.152 191V185.75C551.486 186.25 556.652 186.5 561.652 186.5C566.486 186.5 571.069 186.25 575.402 185.75C579.902 185.083 583.986 184.167 587.652 183ZM535.152 246.75C542.486 246.75 549.319 248.5 555.652 252C562.152 255.5 566.486 261.5 568.652 270L565.402 272.5C563.069 265.5 559.402 260.417 554.402 257.25C549.569 254.083 543.819 252.5 537.152 252.5C527.319 252.5 519.069 257.583 512.402 267.75C505.902 277.917 502.736 293.583 502.902 314.75C502.902 328.25 504.152 339.5 506.652 348.5C509.319 357.333 513.152 364 518.152 368.5C523.319 372.833 529.569 375 536.902 375C543.902 375 550.236 372 555.902 366C561.569 360 564.986 351.167 566.152 339.5L569.152 343C567.819 355.667 563.736 365.417 556.902 372.25C550.236 379.083 541.152 382.5 529.652 382.5C519.319 382.5 510.236 380 502.402 375C494.736 370 488.819 362.5 484.652 352.5C480.652 342.5 478.652 329.917 478.652 314.75C478.652 299.583 481.236 287 486.402 277C491.736 266.833 498.652 259.25 507.152 254.25C515.819 249.25 525.152 246.75 535.152 246.75ZM632.666 187.75C636.999 187.75 640.749 189.333 643.916 192.5C647.083 195.667 648.666 199.417 648.666 203.75C648.666 208.083 647.083 211.833 643.916 215C640.749 218.167 636.999 219.75 632.666 219.75C628.333 219.75 624.583 218.167 621.416 215C618.249 211.833 616.666 208.083 616.666 203.75C616.666 199.417 618.249 195.667 621.416 192.5C624.583 189.333 628.333 187.75 632.666 187.75ZM645.666 247.5V355.75C645.666 362.75 647.083 367.5 649.916 370C652.916 372.5 657.833 373.75 664.666 373.75V379C661.833 378.833 657.499 378.667 651.666 378.5C645.999 378.167 640.249 378 634.416 378C628.749 378 622.999 378.167 617.166 378.5C611.333 378.667 606.999 378.833 604.166 379V373.75C610.999 373.75 615.833 372.5 618.666 370C621.666 367.5 623.166 362.75 623.166 355.75V277.5C623.166 270 621.833 264.5 619.166 261C616.499 257.333 611.499 255.5 604.166 255.5V250.25C609.499 250.75 614.666 251 619.666 251C624.499 251 629.083 250.75 633.416 250.25C637.916 249.583 641.999 248.667 645.666 247.5ZM723.658 246.75C734.325 246.75 743.908 249.083 752.408 253.75C760.908 258.417 767.658 265.75 772.658 275.75C777.825 285.75 780.408 298.75 780.408 314.75C780.408 330.75 777.825 343.75 772.658 353.75C767.658 363.583 760.908 370.833 752.408 375.5C743.908 380.167 734.325 382.5 723.658 382.5C713.158 382.5 703.575 380.167 694.908 375.5C686.408 370.833 679.575 363.583 674.408 353.75C669.408 343.75 666.908 330.75 666.908 314.75C666.908 298.75 669.408 285.75 674.408 275.75C679.575 265.75 686.408 258.417 694.908 253.75C703.575 249.083 713.158 246.75 723.658 246.75ZM723.658 251.75C714.158 251.75 706.325 256.667 700.158 266.5C694.158 276.333 691.158 292.417 691.158 314.75C691.158 337.083 694.158 353.167 700.158 363C706.325 372.667 714.158 377.5 723.658 377.5C733.158 377.5 740.908 372.667 746.908 363C753.075 353.167 756.158 337.083 756.158 314.75C756.158 292.417 753.075 276.333 746.908 266.5C740.908 256.667 733.158 251.75 723.658 251.75ZM829.121 246.75C835.788 246.75 841.454 247.833 846.121 250C850.788 252.167 854.204 254.167 856.371 256C861.871 260.5 865.204 257.5 866.371 247H872.121C871.788 251.667 871.538 257.25 871.371 263.75C871.204 270.083 871.121 278.667 871.121 289.5H865.371C864.371 283.333 862.621 277.333 860.121 271.5C857.788 265.667 854.288 260.917 849.621 257.25C844.954 253.417 838.871 251.5 831.371 251.5C825.538 251.5 820.621 253.167 816.621 256.5C812.788 259.667 810.871 264.417 810.871 270.75C810.871 275.75 812.371 280.083 815.371 283.75C818.371 287.25 822.288 290.583 827.121 293.75C831.954 296.75 837.204 300.083 842.871 303.75C849.204 307.75 854.954 311.833 860.121 316C865.288 320.167 869.371 324.75 872.371 329.75C875.538 334.75 877.121 340.667 877.121 347.5C877.121 355.167 875.121 361.583 871.121 366.75C867.121 371.917 861.871 375.833 855.371 378.5C849.038 381.167 842.038 382.5 834.371 382.5C830.704 382.5 827.204 382.167 823.871 381.5C820.704 381 817.621 380.167 814.621 379C812.954 378.167 811.204 377.167 809.371 376C807.704 374.833 806.038 373.583 804.371 372.25C802.704 370.917 801.204 371 799.871 372.5C798.538 373.833 797.538 376.583 796.871 380.75H791.121C791.454 375.417 791.704 368.917 791.871 361.25C792.038 353.583 792.121 343.417 792.121 330.75H797.871C799.038 340.083 800.704 348.25 802.871 355.25C805.038 362.25 808.454 367.75 813.121 371.75C817.788 375.583 824.288 377.5 832.621 377.5C835.954 377.5 839.288 376.75 842.621 375.25C846.121 373.75 849.038 371.25 851.371 367.75C853.704 364.25 854.871 359.583 854.871 353.75C854.871 346.417 852.204 340.417 846.871 335.75C841.538 331.083 834.788 326.167 826.621 321C820.621 317.167 814.954 313.333 809.621 309.5C804.454 305.667 800.204 301.333 796.871 296.5C793.704 291.667 792.121 285.833 792.121 279C792.121 271.5 793.788 265.417 797.121 260.75C800.621 255.917 805.204 252.417 810.871 250.25C816.538 247.917 822.621 246.75 829.121 246.75ZM400.248 580.75C392.748 580.75 386.498 579.333 381.498 576.5C376.498 573.667 372.831 569.917 370.498 565.25C368.165 560.417 366.998 555.167 366.998 549.5C366.998 542.333 368.581 536.5 371.748 532C375.081 527.5 379.331 523.833 384.498 521C389.665 518.167 395.081 515.833 400.748 514C406.581 512.167 412.081 510.417 417.248 508.75C422.581 506.917 426.831 504.833 429.998 502.5C433.331 500 434.998 496.833 434.998 493V473.5C434.998 469.167 434.248 465.333 432.748 462C431.415 458.5 429.248 455.833 426.248 454C423.415 452.167 419.665 451.25 414.998 451.25C411.665 451.25 408.331 451.75 404.998 452.75C401.665 453.583 398.915 455.083 396.748 457.25C401.415 458.917 404.998 461.5 407.498 465C410.165 468.333 411.498 472.167 411.498 476.5C411.498 482.167 409.498 486.667 405.498 490C401.665 493.333 397.081 495 391.748 495C385.748 495 381.165 493.167 377.998 489.5C374.998 485.667 373.498 481.083 373.498 475.75C373.498 470.917 374.665 466.917 376.998 463.75C379.498 460.583 382.915 457.583 387.248 454.75C391.915 452.083 397.498 450 403.998 448.5C410.665 447 417.831 446.25 425.498 446.25C433.165 446.25 440.081 447.083 446.248 448.75C452.415 450.25 457.581 453.083 461.748 457.25C465.581 461.083 468.081 465.833 469.248 471.5C470.415 477 470.998 484 470.998 492.5V560.5C470.998 564.667 471.415 567.583 472.248 569.25C473.081 570.75 474.498 571.5 476.498 571.5C477.998 571.5 479.415 571.083 480.748 570.25C482.248 569.417 483.831 568.417 485.498 567.25L487.998 571.5C484.498 574.5 480.415 576.833 475.748 578.5C471.248 580 466.165 580.75 460.498 580.75C454.331 580.75 449.415 579.917 445.748 578.25C442.081 576.417 439.415 574 437.748 571C436.248 568 435.498 564.5 435.498 560.5C431.498 566.833 426.665 571.833 420.998 575.5C415.331 579 408.415 580.75 400.248 580.75ZM417.998 564.75C421.331 564.75 424.331 564 426.998 562.5C429.831 560.833 432.498 558.167 434.998 554.5V503.25C433.498 505.75 431.415 508 428.748 510C426.081 512 423.248 514.083 420.248 516.25C417.248 518.25 414.331 520.5 411.498 523C408.831 525.5 406.665 528.583 404.998 532.25C403.331 535.917 402.498 540.333 402.498 545.5C402.498 552 403.915 556.833 406.748 560C409.581 563.167 413.331 564.75 417.998 564.75ZM545.143 446.25C551.643 446.25 557.559 447 562.893 448.5C568.393 449.833 572.893 451.583 576.393 453.75C580.726 456.417 584.059 459.75 586.393 463.75C588.893 467.583 590.143 472.083 590.143 477.25C590.143 483.083 588.309 487.917 584.643 491.75C580.976 495.417 576.226 497.25 570.393 497.25C564.559 497.25 559.893 495.583 556.393 492.25C552.893 488.917 551.143 484.417 551.143 478.75C551.143 473.417 552.809 469 556.143 465.5C559.476 461.833 563.309 459.417 567.643 458.25C566.309 456.583 564.309 455.167 561.643 454C558.976 452.833 555.976 452.25 552.643 452.25C547.476 452.25 542.893 453.75 538.893 456.75C535.059 459.75 531.809 463.917 529.143 469.25C526.476 474.583 524.393 480.833 522.893 488C521.559 495.167 520.893 503 520.893 511.5C520.893 524.333 522.476 534.417 525.643 541.75C528.976 549.083 533.143 554.25 538.143 557.25C543.309 560.25 548.643 561.75 554.143 561.75C557.309 561.75 560.726 561.25 564.393 560.25C568.226 559.25 572.059 557.25 575.893 554.25C579.893 551.25 583.559 547 586.893 541.5L591.143 543C589.309 549.167 586.309 555.333 582.143 561.5C577.976 567.667 572.559 572.75 565.893 576.75C559.226 580.583 551.059 582.5 541.393 582.5C530.559 582.5 520.726 580.167 511.893 575.5C503.226 570.667 496.226 563.333 490.893 553.5C485.726 543.5 483.143 530.667 483.143 515C483.143 500 485.809 487.417 491.143 477.25C496.643 466.917 504.059 459.167 513.393 454C522.726 448.833 533.309 446.25 545.143 446.25ZM675.166 446.25C680.499 446.25 684.833 447.417 688.166 449.75C691.499 451.917 693.916 454.75 695.416 458.25C697.083 461.75 697.916 465.417 697.916 469.25C697.916 475.417 696.083 480.5 692.416 484.5C688.916 488.333 684.249 490.25 678.416 490.25C672.583 490.25 667.999 488.833 664.666 486C661.499 483 659.916 479.083 659.916 474.25C659.916 469.583 660.916 465.75 662.916 462.75C665.083 459.583 667.749 456.917 670.916 454.75C668.583 454.083 666.249 454.167 663.916 455C660.749 455.5 657.749 456.833 654.916 459C652.083 461 649.666 463.583 647.666 466.75C645.666 469.75 644.083 473.083 642.916 476.75C641.749 480.25 641.166 483.667 641.166 487V553.25C641.166 561.25 643.083 566.667 646.916 569.5C650.916 572.333 656.833 573.75 664.666 573.75V579C660.833 578.833 655.249 578.667 647.916 578.5C640.583 578.167 632.916 578 624.916 578C618.249 578 611.499 578.167 604.666 578.5C597.833 578.667 592.666 578.833 589.166 579V573.75C594.999 573.75 599.083 572.5 601.416 570C603.916 567.5 605.166 562.75 605.166 555.75V477C605.166 469.5 603.999 464 601.666 460.5C599.499 456.833 595.333 455 589.166 455V449.75C594.499 450.25 599.666 450.5 604.666 450.5C611.666 450.5 618.166 450.25 624.166 449.75C630.333 449.083 635.999 448.167 641.166 447V470.25C643.166 465.75 645.833 461.667 649.166 458C652.499 454.333 656.333 451.5 660.666 449.5C664.999 447.333 669.833 446.25 675.166 446.25ZM751.947 446.25C764.114 446.25 774.781 448.5 783.947 453C793.114 457.5 800.281 464.75 805.447 474.75C810.614 484.75 813.197 498 813.197 514.5C813.197 531 810.614 544.25 805.447 554.25C800.281 564.083 793.114 571.25 783.947 575.75C774.781 580.25 764.114 582.5 751.947 582.5C740.114 582.5 729.531 580.25 720.197 575.75C711.031 571.25 703.781 564.083 698.447 554.25C693.281 544.25 690.697 531 690.697 514.5C690.697 498 693.281 484.75 698.447 474.75C703.781 464.75 711.031 457.5 720.197 453C729.531 448.5 740.114 446.25 751.947 446.25ZM751.947 451.25C745.281 451.25 739.697 456.25 735.197 466.25C730.697 476.083 728.447 492.167 728.447 514.5C728.447 536.833 730.697 552.917 735.197 562.75C739.697 572.583 745.281 577.5 751.947 577.5C758.781 577.5 764.364 572.583 768.697 562.75C773.197 552.917 775.447 536.833 775.447 514.5C775.447 492.167 773.197 476.083 768.697 466.25C764.364 456.25 758.781 451.25 751.947 451.25Z" fill="black"/>
<path d="M505 175H565V290H505V175Z" fill="white"/>
<path d="M588 244H623V392H588V244Z" fill="white"/>
<path d="M382 213H434V286H382V213Z" fill="white"/>
<path d="M243 199H288V272H243V199Z" fill="white"/>
<path d="M858 224H910V297H858V224Z" fill="white"/>
<path d="M311 319H359V392H311V319Z" fill="white"/>
<path d="M704 244H743V392H704V244Z" fill="white"/>
<circle cx="837.5" cy="268.5" r="26.5" fill="white"/>
<ellipse cx="225.823" cy="232.465" rx="43.9521" ry="26.5" transform="rotate(20 225.823 232.465)" fill="white"/>
<ellipse cx="672.145" cy="473" rx="25" ry="20" fill="white"/>
<ellipse cx="557.806" cy="479.136" rx="29.3521" ry="25.4624" transform="rotate(38 557.806 479.136)" fill="white"/>
<ellipse cx="404.237" cy="474.975" rx="31.5519" ry="23.1423" transform="rotate(-24 404.237 474.975)" fill="white"/>
<ellipse cx="751.645" cy="514.5" rx="57.5" ry="21.5" fill="white"/>
<ellipse cx="633" cy="204" rx="13" ry="5" fill="white"/>
<ellipse cx="633" cy="204" rx="13" ry="5" transform="rotate(-90 633 204)" fill="white"/>
<path d="M178.7 584.5C171.1 584.5 165.7 580.5 162.5 572.5C159.5 564.5 158 551.7 158 534.1C158 508.1 161.7 483.4 169.1 460C170.9 454.2 173.8 450 177.8 447.4C182 444.6 187.8 443.2 195.2 443.2C199.2 443.2 202 443.7 203.6 444.7C205.2 445.7 206 447.6 206 450.4C206 453.6 204.5 460.8 201.5 472C199.5 480 197.9 487 196.7 493C195.5 498.8 194.5 506.1 193.7 514.9C199.1 499.3 205.5 486.1 212.9 475.3C220.5 464.5 228.2 456.5 236 451.3C244 445.9 251.5 443.2 258.5 443.2C265.5 443.2 270.4 444.8 273.2 448C276.2 451.2 277.7 456.1 277.7 462.7C277.7 469.1 275.8 480.7 272 497.5C270.4 504.7 269.3 510.1 268.7 513.7C275.3 496.9 282.6 483.2 290.6 472.6C298.8 462 306.8 454.5 314.6 450.1C322.4 445.5 329.6 443.2 336.2 443.2C342.6 443.2 347.4 444.9 350.6 448.3C354 451.5 355.7 456.3 355.7 462.7C355.7 467.9 354.6 477.7 352.4 492.1C350.4 504.3 348.8 515.9 347.6 526.9C346.4 537.7 345.8 549.8 345.8 563.2C345.8 570.8 344.2 576.3 341 579.7C338 582.9 333 584.5 326 584.5C319.4 584.5 314.6 582.8 311.6 579.4C308.6 576 307.1 570.9 307.1 564.1C307.1 556.1 308.5 542.9 311.3 524.5C313.7 508.5 314.9 498.3 314.9 493.9C314.9 490.7 313.8 489.1 311.6 489.1C309 489.1 305.3 492.5 300.5 499.3C295.7 505.9 290.9 514.7 286.1 525.7C281.3 536.7 277.4 548.3 274.4 560.5C272.2 570.1 269.6 576.5 266.6 579.7C263.8 582.9 259.2 584.5 252.8 584.5C246.2 584.5 241.2 581.4 237.8 575.2C234.6 568.8 233 561.1 233 552.1C233 544.5 234 533.5 236 519.1C237.6 506.3 238.4 497.9 238.4 493.9C238.4 490.7 237.3 489.1 235.1 489.1C232.1 489.1 228.3 492.7 223.7 499.9C219.1 507.1 214.6 516.3 210.2 527.5C206 538.7 202.6 549.7 200 560.5C197.8 569.9 195.2 576.3 192.2 579.7C189.4 582.9 184.9 584.5 178.7 584.5Z" fill="black"/>
<ellipse cx="539.574" cy="400.285" rx="461.363" ry="245.414" transform="rotate(-28 539.574 400.285)" fill="url(#paint0_radial_9_48)"/>
</g>
<defs>
<filter id="filter0_di_9_48" x="41" y="28.9999" width="997" height="708" filterUnits="userSpaceOnUse" color-interpolation-filters="sRGB">
<feFlood flood-opacity="0" result="BackgroundImageFix"/>
<feColorMatrix in="SourceAlpha" type="matrix" values="0 0 0 0 0 0 0 0 0 0 0 0 0 0 0 0 0 0 127 0" result="hardAlpha"/>
<feMorphology radius="10" operator="dilate" in="SourceAlpha" result="effect1_dropShadow_9_48"/>
<feOffset dy="4"/>
<feGaussianBlur stdDeviation="25"/>
<feComposite in2="hardAlpha" operator="out"/>
<feColorMatrix type="matrix" values="0 0 0 0 1 0 0 0 0 1 0 0 0 0 1 0 0 0 0.25 0"/>
<feBlend mode="normal" in2="BackgroundImageFix" result="effect1_dropShadow_9_48"/>
<feBlend mode="normal" in="SourceGraphic" in2="effect1_dropShadow_9_48" result="shape"/>
<feColorMatrix in="SourceAlpha" type="matrix" values="0 0 0 0 0 0 0 0 0 0 0 0 0 0 0 0 0 0 127 0" result="hardAlpha"/>
<feOffset dy="15"/>
<feGaussianBlur stdDeviation="25"/>
<feComposite in2="hardAlpha" operator="arithmetic" k2="-1" k3="1"/>
<feColorMatrix type="matrix" values="0 0 0 0 1 0 0 0 0 1 0 0 0 0 1 0 0 0 0.5 0"/>
<feBlend mode="normal" in2="shape" result="effect2_innerShadow_9_48"/>
</filter>
<radialGradient id="paint0_radial_9_48" cx="0" cy="0" r="1" gradientUnits="userSpaceOnUse" gradientTransform="translate(539.574 400.285) rotate(90) scale(245.414 461.363)">
<stop offset="0.235" stop-color="white" stop-opacity="0"/>
<stop offset="0.54" stop-color="white" stop-opacity="0.3"/>
<stop offset="0.83" stop-color="white" stop-opacity="0"/>
</radialGradient>
<clipPath id="clip0_9_48">
<rect width="1080" height="800" fill="white"/>
</clipPath>
</defs>
</svg>
